:FULLY-SPECIFIED
:FORCE-ALL-JOINTS-BE-3DOF
:DEGREES
102
root -2.86168 16.5075 -36.2275 2.19842 0.103917 -2.23362
lfemur -20.1285 5.82189 -8.99504
ltibia 43.9866 0 0
lfoot -21.207 -0.150654 0
ltoes -7.47083 0 0
rfemur -20.8025 -5.48418 13.865
rtibia 46.9345 0 0
rfoot -25.2548 1.44323 0
rtoes -6.21571 0 0
lowerback 9.41379 2.01318 -1.55277
upperback -3.14538 2.59954 1.21602
thorax -8.76294 1.38668 1.72559
lowerneck -2.5832 -3.8459 -6.65814
upperneck 4.82112 -5.1572 6.01211
head 2.3819 -2.55148 2.98692
lclavicle -1.16736e-15 -2.57236e-15 0
lhumerus -26.5834 -4.35445 89.6084
lradius 25.0247 0 0
lwrist -30.4307 0 0
lhand -28.8003 30.1419 0
lfingers 7.12502 0 0
lthumb -2.15889 60.1107 0
rclavicle -1.16736e-15 -2.57236e-15 0
rhumerus -32.4228 3.21852 -80.4774
rradius 30.7017 0 0
rwrist 2.51709 0 0
rhand -20.2485 -26.8985 0
rfingers 7.12502 0 0
rthumb 6.09992 -56.7907 0
103
root -2.85965 16.5059 -36.2252 2.20778 0.10164 -2.23921
lfemur -20.1333 5.80652 -8.99104
ltibia 43.9801 0 0
lfoot -21.2057 -0.12324 0
ltoes -7.52052 0 0
rfemur -20.8087 -5.48399 13.8703
rtibia 46.9257 0 0
rfoot -25.2515 1.45214 0
rtoes -6.22824 0 0
lowerback 9.40274 2.01412 -1.5592
upperback -3.14976 2.60023 1.21734
thorax -8.76162 1.38746 1.73072
lowerneck -2.59167 -3.84549 -6.65758
upperneck 4.83214 -5.15679 6.01572
head 2.38726 -2.55106 2.98799
lclavicle -1.11551e-15 -2.35279e-15 0
lhumerus -26.5824 -4.34613 89.6075
lradius 25.0271 0 0
lwrist -30.4315 0 0
lhand -28.7969 30.1436 0
lfingers 7.12502 0 0
lthumb -2.15561 60.1124 0
rclavicle -1.11551e-15 -2.35279e-15 0
rhumerus -32.4248 3.2066 -80.4762
rradius 30.6971 0 0
rwrist 2.52308 0 0
rhand -20.255 -26.9013 0
rfingers 7.12502 0 0
rthumb 6.09365 -56.7936 0
104
root -2.85761 16.5042 -36.223 2.21966 0.099969 -2.24559
lfemur -20.1419 5.79107 -8.98676
ltibia 43.9763 0 0
lfoot -21.206 -0.0947429 0
ltoes -7.57318 0 0
rfemur -20.8178 -5.48519 13.8761
rtibia 46.9184 0 0
rfoot -25.2495 1.4616 0
rtoes -6.24266 0 0
lowerback 9.38794 2.01496 -1.5662
upperback -3.15541 2.60077 1.21876
thorax -8.75952 1.38822 1.73638
lowerneck -2.60028 -3.84513 -6.65688
upperneck 4.84536 -5.15655 6.01948
head 2.39341 -2.55072 2.98909
lclavicle -1.06242e-15 -2.09398e-15 0
lhumerus -26.5814 -4.3359 89.6058
lradius 25.0292 0 0
lwrist -30.4327 0 0
lhand -28.7929 30.146 0
lfingers 7.12502 0 0
lthumb -2.15171 60.1148 0
rclavicle -1.06242e-15 -2.09398e-15 0
rhumerus -32.4273 3.19323 -80.4749
rradius 30.6922 0 0
rwrist 2.52947 0 0
rhand -20.2607 -26.9048 0
rfingers 7.12502 0 0
rthumb 6.08809 -56.7972 0
105
root -2.85558 16.5026 -36.2207 2.23441 0.0990637 -2.25285
lfemur -20.1549 5.77575 -8.9822
ltibia 43.9757 0 0
lfoot -21.2086 -0.065378 0
ltoes -7.62864 0 0
rfemur -20.8302 -5.48807 13.8823
rtibia 46.9129 0 0
rfoot -25.249 1.47159 0
rtoes -6.25918 0 0
lowerback 9.36882 2.01565 -1.57376
upperback -3.16251 2.60112 1.22026
thorax -8.75651 1.38893 1.7426
lowerneck -2.60893 -3.84485 -6.65599
upperneck 4.86106 -5.15651 6.02335
head 2.40041 -2.55048 2.99018
lclavicle -1.00866e-15 -1.79152e-15 0
lhumerus -26.5804 -4.32352 89.603
lradius 25.0311 0 0
lwrist -30.4347 0 0
lhand -28.7882 30.1491 0
lfingers 7.12502 0 0
lthumb -2.14712 60.118 0
rclavicle -1.00866e-15 -1.79152e-15 0
rhumerus -32.4303 3.17833 -80.4734
rradius 30.6869 0 0
rwrist 2.53626 0 0
rhand -20.2655 -26.909 0
rfingers 7.12502 0 0
rthumb 6.08349 -56.8015 0
106
root -2.85355 16.501 -36.2184 2.25239 0.0990813 -2.26105
lfemur -20.1729 5.7608 -8.97739
ltibia 43.9792 0 0
lfoot -21.2136 -0.0353621 0
ltoes -7.6867 0 0
rfemur -20.8463 -5.49291 13.889
rtibia 46.9096 0 0
rfoot -25.2503 1.48207 0
rtoes -6.27796 0 0
lowerback 9.34481 2.01617 -1.58191
upperback -3.17127 2.60124 1.22186
thorax -8.75245 1.38959 1.7494
lowerneck -2.61751 -3.84466 -6.65491
upperneck 4.8795 -5.15671 6.0273
head 2.40833 -2.55035 2.99126
lclavicle -9.548e-16 -1.44104e-15 0
lhumerus -26.5794 -4.30874 89.5992
lradius 25.0326 0 0
lwrist -30.4374 0 0
lhand -28.7826 30.1532 0
lfingers 7.12502 0 0
lthumb -2.14177 60.1222 0
rclavicle -9.548e-16 -1.44104e-15 0
rhumerus -32.4339 3.16179 -80.4717
rradius 30.6811 0 0
rwrist 2.54341 0 0
rhand -20.269 -26.9142 0
rfingers 7.12502 0 0
rthumb 6.08009 -56.8067 0
107
root -2.85152 16.4994 -36.2161 2.27397 0.10018 -2.27027
lfemur -20.1966 5.74643 -8.97232
ltibia 43.9872 0 0
lfoot -21.2215 -0.00491204 0
ltoes -7.74718 0 0
rfemur -20.8667 -5.49998 13.8962
rtibia 46.9091 0 0
rfoot -25.2537 1.49301 0
rtoes -6.2992 0 0
lowerback 9.31533 2.01647 -1.59064
upperback -3.18185 2.6011 1.22354
thorax -8.7472 1.39018 1.75681
lowerneck -2.62592 -3.84458 -6.65361
upperneck 4.90095 -5.1572 6.03132
head 2.41725 -2.55037 2.99232
lclavicle -9.01409e-16 -1.03813e-15 0
lhumerus -26.5783 -4.29131 89.5941
lradius 25.0337 0 0
lwrist -30.441 0 0
lhand -28.7762 30.1583 0
lfingers 7.12502 0 0
lthumb -2.1356 60.1273 0
rclavicle -9.01409e-16 -1.03813e-15 0
rhumerus -32.4382 3.14351 -80.4698
rradius 30.675 0 0
rwrist 2.55093 0 0
rhand -20.2711 -26.9203 0
rfingers 7.12502 0 0
rthumb 6.07812 -56.8129 0
108
root -2.84949 16.4978 -36.2139 2.29949 0.102517 -2.28057
lfemur -20.2268 5.73288 -8.967
ltibia 44.0004 0 0
lfoot -21.2327 0.0257557 0
ltoes -7.80989 0 0
rfemur -20.8919 -5.50957 13.904
rtibia 46.9116 0 0
rfoot -25.2594 1.5044 0
rtoes -6.32307 0 0
lowerback 9.2798 2.01652 -1.59998
upperback -3.19446 2.60065 1.22531
thorax -8.74063 1.39067 1.76486
lowerneck -2.63404 -3.84463 -6.65207
upperneck 4.92568 -5.15801 6.03536
head 2.42723 -2.55056 2.99334
lclavicle -8.49062e-16 -5.78408e-16 0
lhumerus -26.5772 -4.27098 89.5875
lradius 25.0343 0 0
lwrist -30.4456 0 0
lhand -28.7689 30.1646 0
lfingers 7.12502 0 0
lthumb -2.12852 60.1336 0
rclavicle -8.49062e-16 -5.78408e-16 0
rhumerus -32.4431 3.12339 -80.4677
rradius 30.6685 0 0
rwrist 2.55878 0 0
rhand -20.2713 -26.9276 0
rfingers 7.12502 0 0
rthumb 6.07784 -56.8201 0
109
root -2.84746 16.4962 -36.2116 2.32931 0.106251 -2.29203
lfemur -20.264 5.72037 -8.96144
ltibia 44.0195 0 0
lfoot -21.2476 0.0564245 0
ltoes -7.87464 0 0
rfemur -20.9222 -5.52197 13.9122
rtibia 46.9178 0 0
rfoot -25.2678 1.51619 0
rtoes -6.34977 0 0
lowerback 9.23765 2.01628 -1.60993
upperback -3.20927 2.59985 1.22716
thorax -8.7326 1.39105 1.77356
lowerneck -2.64178 -3.84482 -6.65026
upperneck 4.95396 -5.15919 6.0394
head 2.43835 -2.55093 2.9943
lclavicle -7.98328e-16 -5.74727e-17 0
lhumerus -26.5762 -4.2475 89.5794
lradius 25.0343 0 0
lwrist -30.4512 0 0
lhand -28.7606 30.172 0
lfingers 7.12502 0 0
lthumb -2.12046 60.1412 0
rclavicle -7.98328e-16 -5.74727e-17 0
rhumerus -32.4489 3.10133 -80.4654
rradius 30.6616 0 0
rwrist 2.56697 0 0
rhand -20.2696 -26.9359 0
rfingers 7.12502 0 0
rthumb 6.07948 -56.8283 0
110
root -2.84543 16.4946 -36.2093 2.36378 0.111539 -2.30471
lfemur -20.309 5.70912 -8.95565
ltibia 44.045 0 0
lfoot -21.2664 0.0868778 0
ltoes -7.94124 0 0
rfemur -20.9582 -5.53745 13.921
rtibia 46.9279 0 0
rfoot -25.2792 1.52835 0
rtoes -6.37947 0 0
lowerback 9.18831 2.01572 -1.62049
upperback -3.22647 2.59866 1.22909
thorax -8.72298 1.39131 1.78295
lowerneck -2.64903 -3.84518 -6.64816
upperneck 4.98606 -5.16077 6.04341
head 2.45068 -2.55151 2.9952
lclavicle -7.4978e-16 5.29067e-16 0
lhumerus -26.5751 -4.22062 89.5696
lradius 25.0337 0 0
lwrist -30.458 0 0
lhand -28.7511 30.1809 0
lfingers 7.12502 0 0
lthumb -2.11136 60.1501 0
rclavicle -7.4978e-16 5.29067e-16 0
rhumerus -32.4554 3.07724 -80.4629
rradius 30.6543 0 0
rwrist 2.57547 0 0
rhand -20.2657 -26.9456 0
rfingers 7.12502 0 0
rthumb 6.08329 -56.8378 0
111
root -2.8434 16.493 -36.2071 2.40328 0.118539 -2.3187
lfemur -20.3624 5.69937 -8.94964
ltibia 44.0777 0 0
lfoot -21.2896 0.116899 0
ltoes -8.00951 0 0
rfemur -21.0003 -5.5563 13.9304
rtibia 46.9424 0 0
rfoot -25.2938 1.54086 0
rtoes -6.41235 0 0
lowerback 9.13119 2.0148 -1.63169
upperback -3.24625 2.59704 1.2311
thorax -8.71163 1.39143 1.79305
lowerneck -2.65569 -3.84572 -6.64576
upperneck 5.02224 -5.16279 6.04737
head 2.46429 -2.55232 2.99602
lclavicle -7.0399e-16 1.18561e-15 0
lhumerus -26.5741 -4.19009 89.5578
lradius 25.0323 0 0
lwrist -30.4661 0 0
lhand -28.7406 30.1912 0
lfingers 7.12502 0 0
lthumb -2.10114 60.1605 0
rclavicle -7.0399e-16 1.18561e-15 0
rhumerus -32.4629 3.05101 -80.4601
rradius 30.6465 0 0
rwrist 2.58428 0 0
rhand -20.2593 -26.9566 0
rfingers 7.12502 0 0
rthumb 6.08951 -56.8486 0
112
root -2.84137 16.4914 -36.2048 2.44815 0.12741 -2.33406
lfemur -20.4248 5.69133 -8.9434
ltibia 44.1182 0 0
lfoot -21.3176 0.146271 0
ltoes -8.07925 0 0
rfemur -21.049 -5.5788 13.9403
rtibia 46.9617 0 0
rfoot -25.312 1.55369 0
rtoes -6.44861 0 0
lowerback 9.06573 2.01348 -1.64353
upperback -3.26879 2.59496 1.23319
thorax -8.69841 1.39139 1.80389
lowerneck -2.66164 -3.84646 -6.64303
upperneck 5.06277 -5.16529 6.05124
head 2.47925 -2.55338 2.99675
lclavicle -6.61528e-16 1.91653e-15 0
lhumerus -26.5731 -4.15566 89.5441
lradius 25.0301 0 0
lwrist -30.4756 0 0
lhand -28.7287 30.2031 0
lfingers 7.12502 0 0
lthumb -2.08974 60.1725 0
rclavicle -6.61528e-16 1.91653e-15 0
rhumerus -32.4714 3.02254 -80.457
rradius 30.6384 0 0
rwrist 2.59337 0 0
rhand -20.2501 -26.969 0
rfingers 7.12502 0 0
rthumb 6.09838 -56.8607 0
113
root -2.83934 16.4898 -36.2025 2.49874 0.138308 -2.35087
lfemur -20.497 5.68523 -8.93696
ltibia 44.1671 0 0
lfoot -21.3508 0.174779 0
ltoes -8.15027 0 0
rfemur -21.1048 -5.60523 13.9507
rtibia 46.9863 0 0
rfoot -25.334 1.56681 0
rtoes -6.48842 0 0
lowerback 8.99134 2.01173 -1.65602
upperback -3.29428 2.59236 1.23535
thorax -8.6832 1.39117 1.81549
lowerneck -2.66679 -3.84741 -6.63994
upperneck 5.10792 -5.16832 6.055
head 2.49564 -2.55472 2.99737
lclavicle -6.22967e-16 2.72625e-15 0
lhumerus -26.5721 -4.11708 89.5281
lradius 25.027 0 0
lwrist -30.4865 0 0
lhand -28.7156 30.2166 0
lfingers 7.12502 0 0
lthumb -2.07707 60.1862 0
rclavicle -6.22967e-16 2.72625e-15 0
rhumerus -32.4808 2.99174 -80.4537
rradius 30.6298 0 0
rwrist 2.60273 0 0
rhand -20.2379 -26.983 0
rfingers 7.12502 0 0
rthumb 6.11014 -56.8743 0
114
root -2.83731 16.4882 -36.2002 2.55543 0.151392 -2.36919
lfemur -20.5797 5.6813 -8.93032
ltibia 44.225 0 0
lfoot -21.3894 0.202204 0
ltoes -8.2224 0 0
rfemur -21.1681 -5.63587 13.9617
rtibia 47.0165 0 0
rfoot -25.3602 1.58018 0
rtoes -6.53196 0 0
lowerback 8.90745 2.00951 -1.66917
upperback -3.32291 2.58921 1.23758
thorax -8.66585 1.39076 1.82788
lowerneck -2.67102 -3.8486 -6.63648
upperneck 5.15796 -5.17191 6.05861
head 2.51352 -2.55635 2.99786
lclavicle -5.88877e-16 3.61914e-15 0
lhumerus -26.5711 -4.0741 89.5099
lradius 25.0229 0 0
lwrist -30.499 0 0
lhand -28.7011 30.232 0
lfingers 7.12502 0 0
lthumb -2.06307 60.2017 0
rclavicle -5.88877e-16 3.61914e-15 0
rhumerus -32.4914 2.9585 -80.45
rradius 30.6208 0 0
rwrist 2.61236 0 0
rhand -20.2224 -26.9986 0
rfingers 7.12502 0 0
rthumb 6.12504 -56.8895 0
115
root -2.83528 16.4866 -36.198 2.61855 0.16682 -2.38911
lfemur -20.6734 5.67977 -8.92348
ltibia 44.2927 0 0
lfoot -21.434 0.22833 0
ltoes -8.29543 0 0
rfemur -21.2394 -5.67101 13.9733
rtibia 47.0529 0 0
rfoot -25.3908 1.59379 0
rtoes -6.57943 0 0
lowerback 8.81349 2.00679 -1.68299
upperback -3.35485 2.58547 1.23988
thorax -8.64623 1.39014 1.84108
lowerneck -2.67424 -3.85004 -6.63262
upperneck 5.21316 -5.1761 6.06205
head 2.53296 -2.55831 2.99823
lclavicle -5.5983e-16 4.5996e-15 0
lhumerus -26.5702 -4.02647 89.4891
lradius 25.0179 0 0
lwrist -30.5133 0 0
lhand -28.6852 30.2493 0
lfingers 7.12502 0 0
lthumb -2.04767 60.2191 0
rclavicle -5.5983e-16 4.5996e-15 0
rhumerus -32.5031 2.92272 -80.4461
rradius 30.6114 0 0
rwrist 2.62222 0 0
rhand -20.2035 -27.0159 0
rfingers 7.12502 0 0
rthumb 6.14331 -56.9063 0
